<svg width="413" height="596" viewBox="0 0 413 596" fill="none" xmlns="http://www.w3.org/2000/svg">
<path d="M128.24 342.48C129.52 342.48 130.773 342.187 132 341.6C133.227 341.013 134.467 340.027 135.72 338.64L139.64 342.36C138.067 344.387 136.267 345.92 134.24 346.96C132.24 348 130.173 348.52 128.04 348.52C126.12 348.52 124.32 348.133 122.64 347.36C120.96 346.56 119.493 345.493 118.24 344.16C117.013 342.827 116.04 341.28 115.32 339.52C114.627 337.733 114.28 335.84 114.28 333.84C114.28 331.84 114.64 329.96 115.36 328.2C116.107 326.44 117.107 324.893 118.36 323.56C119.613 322.227 121.093 321.173 122.8 320.4C124.507 319.627 126.32 319.24 128.24 319.24C130.027 319.24 131.72 319.573 133.32 320.24C134.947 320.907 136.533 322.013 138.08 323.56L134.56 327.84C133.44 326.8 132.373 326.107 131.36 325.76C130.373 325.387 129.333 325.2 128.24 325.2C127.147 325.2 126.107 325.427 125.12 325.88C124.16 326.333 123.32 326.947 122.6 327.72C121.88 328.493 121.307 329.413 120.88 330.48C120.48 331.52 120.28 332.64 120.28 333.84C120.28 335.04 120.48 336.16 120.88 337.2C121.307 338.24 121.88 339.16 122.6 339.96C123.32 340.733 124.16 341.347 125.12 341.8C126.107 342.253 127.147 342.48 128.24 342.48ZM148.053 330.92C148.319 330.493 148.626 330.093 148.973 329.72C149.319 329.32 149.733 328.973 150.213 328.68C150.693 328.36 151.239 328.107 151.853 327.92C152.466 327.733 153.159 327.64 153.933 327.64C154.839 327.64 155.893 327.8 157.093 328.12L156.573 333.04C156.279 332.987 155.986 332.92 155.693 332.84C155.453 332.787 155.186 332.747 154.893 332.72C154.599 332.667 154.333 332.64 154.093 332.64C153.239 332.64 152.439 332.76 151.693 333C150.973 333.24 150.346 333.573 149.813 334C149.279 334.427 148.853 334.947 148.533 335.56C148.213 336.147 148.053 336.787 148.053 337.48V348H142.533V328.16H147.533L148.053 330.92ZM175.706 328.16H181.746L169.226 355.92H163.186L168.106 345L159.706 328.16H165.866L171.026 338.52L175.706 328.16ZM195.499 327.6C196.912 327.6 198.219 327.88 199.419 328.44C200.619 328.973 201.645 329.72 202.499 330.68C203.379 331.613 204.059 332.72 204.539 334C205.045 335.253 205.299 336.6 205.299 338.04C205.299 339.48 205.045 340.84 204.539 342.12C204.059 343.373 203.379 344.48 202.499 345.44C201.645 346.373 200.619 347.12 199.419 347.68C198.219 348.213 196.912 348.48 195.499 348.48C194.352 348.48 193.232 348.28 192.139 347.88C191.045 347.453 190.192 346.92 189.579 346.28V355.92H184.059V328.16H188.779L189.579 329.52C190.352 328.827 191.219 328.333 192.179 328.04C193.139 327.747 194.245 327.6 195.499 327.6ZM194.779 343.56C195.499 343.56 196.165 343.413 196.779 343.12C197.419 342.827 197.965 342.44 198.419 341.96C198.899 341.453 199.272 340.867 199.539 340.2C199.832 339.533 199.979 338.813 199.979 338.04C199.979 337.293 199.832 336.587 199.539 335.92C199.272 335.227 198.899 334.64 198.419 334.16C197.965 333.653 197.419 333.253 196.779 332.96C196.165 332.667 195.499 332.52 194.779 332.52C194.059 332.52 193.379 332.627 192.739 332.84C192.125 333.027 191.579 333.347 191.099 333.8C190.645 334.227 190.285 334.8 190.019 335.52C189.752 336.213 189.619 337.053 189.619 338.04C189.619 338.973 189.752 339.787 190.019 340.48C190.285 341.147 190.645 341.72 191.099 342.2C191.579 342.653 192.125 343 192.739 343.24C193.379 343.453 194.059 343.56 194.779 343.56ZM214.972 340.88C214.972 341.813 215.252 342.533 215.812 343.04C216.398 343.547 217.158 343.8 218.092 343.8C218.838 343.8 219.585 343.653 220.332 343.36V348C219.665 348.213 218.958 348.387 218.212 348.52C217.465 348.68 216.718 348.76 215.972 348.76C215.118 348.76 214.305 348.653 213.532 348.44C212.758 348.227 212.065 347.867 211.452 347.36C210.838 346.827 210.345 346.133 209.972 345.28C209.625 344.4 209.452 343.32 209.452 342.04V333.08H206.612V329.36L209.452 328.16V323.72H214.972V328.16H220.332V333.08H214.972V340.88ZM228.964 348H223.444V328.16H228.964V348ZM226.204 325.44C225.351 325.44 224.631 325.147 224.044 324.56C223.457 323.973 223.164 323.253 223.164 322.4C223.164 321.547 223.457 320.827 224.044 320.24C224.631 319.627 225.351 319.32 226.204 319.32C227.057 319.32 227.777 319.627 228.364 320.24C228.951 320.827 229.244 321.547 229.244 322.4C229.244 323.253 228.951 323.973 228.364 324.56C227.777 325.147 227.057 325.44 226.204 325.44ZM240.481 337.64L233.401 328.16H240.241L243.761 333.44L247.281 328.16H254.121L247.001 337.68L254.721 348H247.881L243.721 341.84L239.561 348H232.721L240.481 337.64Z" fill="white"/>
<path d="M165.248 429.696C182.713 429.696 196.82 426.897 207.567 421.299C218.315 415.701 225.033 411.671 227.72 409.208L256.268 451.191C254.029 453.207 248.655 456.453 240.147 460.932C231.862 465.186 221.114 469.104 207.903 472.687C194.916 476.27 180.138 478.061 163.568 478.061C138.266 478.061 114.755 472.463 93.0359 461.267C71.3163 449.848 53.7391 433.278 40.3043 411.559C27.0935 389.839 20.488 363.305 20.488 331.958C20.488 300.386 27.0935 273.852 40.3043 252.357C53.7391 230.637 71.3163 214.179 93.0359 202.984C114.755 191.788 138.266 186.19 163.568 186.19C179.914 186.19 194.468 188.205 207.232 192.236C219.995 196.042 230.518 200.297 238.803 204.999C247.088 209.701 252.574 213.284 255.261 215.747L226.376 257.73C224.585 255.939 221.114 253.252 215.964 249.67C211.038 245.863 204.321 242.392 195.812 239.258C187.303 236.123 177.115 234.555 165.248 234.555C150.917 234.555 136.923 238.474 123.264 246.311C109.829 253.924 98.7456 265.008 90.013 279.562C81.2804 294.116 76.9141 311.582 76.9141 331.958C76.9141 352.334 81.2804 369.911 90.013 384.689C98.7456 399.243 109.829 410.439 123.264 418.276C136.923 425.889 150.917 429.696 165.248 429.696Z" fill="white"/>
<ellipse cx="45" cy="355.398" rx="45" ry="43.3981" fill="white"/>
<ellipse cx="45.5" cy="354.916" rx="18.5" ry="17.8414" fill="black"/>
</svg>
